<svg xmlns="http://www.w3.org/2000/svg" xmlns:xlink="http://www.w3.org/1999/xlink" x="0px" y="0px"
width="22.7" height="22.7"
	 viewBox="0 0 22.7 22.7" style="enable-background:new 0 0 22.7 22.7;" xml:space="preserve">

<path fill="#fff" d="M22.7,21.8l-2-14.6c0-0.4-0.4-0.7-0.8-0.7h-3.7V4.7C16.2,2.1,14,0,11.3,0C8.7,0,6.5,2.1,6.5,4.7v1.8H2.8
	C2.4,6.5,2,6.8,2,7.2L0,21.8c0,0.2,0,0.4,0.2,0.6c0.1,0.2,0.4,0.3,0.6,0.3h21.1c0.2,0,0.4-0.1,0.6-0.3C22.6,22.3,22.7,22,22.7,21.8
	L22.7,21.8z M8.1,4.7c0-1.8,1.5-3.2,3.3-3.2c1.8,0,3.3,1.4,3.3,3.2v1.8H8.1C8.1,6.5,8.1,4.7,8.1,4.7z M1.6,21.2L3.5,8h3v1.7
	c0,0.4,0.4,0.8,0.8,0.8c0.4,0,0.8-0.3,0.8-0.8V8h6.5v1.7c0,0.4,0.3,0.8,0.8,0.8c0.4,0,0.8-0.3,0.8-0.8V8h3L21,21.2L1.6,21.2
	L1.6,21.2z"/>
</svg>
