<svg xmlns="http://www.w3.org/2000/svg" viewBox="0 0 46 34" class="InformationHomeGrid_list-icon__lZTf8" height="18px"><path fill="#fff" clip-rule="evenodd" d="M0 0v34h46V0H0Zm25.316 2.882c-2.735 1.036-5.306 3.513-7.392 8.095l-2.358 5.1C11.27 25.297 8.88 27.281 2.464 27.281V2.299h22.754c.072 0 .141.025.196.071a.298.298 0 0 1-.098.512Zm18.22 3.837v24.982H20.799a.307.307 0 0 1-.2-.067.299.299 0 0 1-.071-.384.303.303 0 0 1 .164-.132c2.735-1.036 5.306-3.513 7.393-8.095l2.357-5.1C34.73 8.703 37.12 6.719 43.536 6.719Z"></path></svg>