<svg  xmlns="http://www.w3.org/2000/svg" xmlns:xlink="http://www.w3.org/1999/xlink" x="0px" y="0px"
      width="21.1" height="20.1"
	 viewBox="0 0 21.1 20.1" style="enable-background:new 0 0 21.1 20.1;" xml:space="preserve">
<g>
	<path fill="#fff" d="M10.5,9.1C8,9.1,6,7.1,6,4.6S8,0,10.5,0s4.6,2.1,4.6,4.6S13.1,9.1,10.5,9.1z M10.5,1.6C8.9,1.6,7.6,3,7.6,4.6
		s1.3,2.9,2.9,2.9s2.9-1.3,2.9-2.9S12.2,1.6,10.5,1.6z"/>
	<path fill="#fff" d="M0.8,20.1c-0.2,0-0.4-0.1-0.6-0.3C0.1,19.7,0,19.5,0,19.3C0.4,14.1,4.8,10,10,10h1c5.2,0,9.6,4.1,10,9.3
		c0,0.2-0.1,0.5-0.2,0.6c-0.2,0.2-0.4,0.3-0.6,0.3H0.8z M10,11.6c-4.1,0-7.5,2.9-8.3,6.9l17.6,0c-0.8-4-4.3-6.9-8.3-6.9H10z"/>
</g>
</svg>